<?xml version="1.0" encoding="UTF-8"?>
<svg id="a" xmlns="http://www.w3.org/2000/svg" viewBox="0 0 3170 820"><defs><style>.b{fill:#231f20;}</style></defs><path class="b" d="M164.07,411.42c0,108.73,88.15,196.88,196.88,196.88V214.54c-108.73,0-196.88,88.15-196.88,196.88ZM360.95,83.28V214.54c108.73,0,196.88,88.15,196.88,196.88s-88.15,196.88-196.88,196.88v131.25c181.23,0,328.13-146.91,328.13-328.13S542.17,83.28,360.95,83.28ZM164.07,411.42c0,108.73,88.15,196.88,196.88,196.88V214.54c-108.73,0-196.88,88.15-196.88,196.88Z"/><g><path class="b" d="M1116.54,341.89c20.13-20.99,30.2-50.76,30.2-89.32s-10.07-68.33-30.2-89.32c-20.13-20.99-49.11-31.48-86.94-31.48h-102.5v241.6h102.5c37.82,0,66.8-10.49,86.94-31.48Zm-125.91-15.68V179.9h33.28c20.48,0,35.42,6.16,44.81,18.47,9.38,12.32,14.08,30.54,14.08,54.68s-4.7,42.37-14.08,54.68c-9.39,12.32-24.32,18.47-44.81,18.47h-33.28Z"/><rect class="b" x="1185.07" y="190.49" width="62.56" height="182.88"/><path class="b" d="M1188.29,162.5c5.73,4.76,14.94,7.13,27.62,7.13s21.59-2.38,27.44-7.13c5.86-4.76,8.78-12.26,8.78-22.5s-2.93-18.11-8.78-22.87c-5.85-4.76-15-7.13-27.44-7.13s-21.89,2.38-27.62,7.13c-5.73,4.76-8.6,12.38-8.6,22.87s2.86,17.74,8.6,22.5Z"/><path class="b" d="M1277,406.12c0,14.14,7.32,25.37,21.95,33.66,14.63,8.29,38.54,12.44,71.71,12.44,20.49,0,38.24-2.5,53.24-7.5,15-5,26.65-12.5,34.94-22.5,8.29-10,12.44-22.56,12.44-37.69,0-16.59-5.67-29.33-17.01-38.24-11.34-8.9-27.63-13.35-48.85-13.35h-58.29c-6.85,0-11.98-1.04-15.4-3.12-3.43-2.07-5.13-5.19-5.13-9.35,0-3.91,1.95-7.21,5.87-9.9,1.65-1.14,3.85-2.07,6.51-2.81,10.07,2.08,21.41,3.18,34.2,3.18,18.58,0,34.47-2.38,47.68-7.15,13.2-4.77,23.29-11.79,30.26-21.09,6.97-9.29,10.45-20.54,10.45-33.74s-3.48-24.76-10.45-33.92c-1.41-1.86-2.99-3.61-4.66-5.3h.01l24.29-41.39h-49.61l-4.6,24.61c-12.32-3.93-26.68-6.01-43.32-6.01-18.79,0-34.76,2.44-47.93,7.32-13.17,4.88-23.23,11.89-30.19,21.04-6.95,9.15-10.43,20.43-10.43,33.85,0,19.76,7.5,35.01,22.5,45.74,2.17,1.55,4.53,2.96,7,4.29-5.75,1.99-10.84,4.69-15.23,8.15-9.27,7.32-13.9,16.83-13.9,28.54s3.66,20.98,10.98,27.81c4.05,3.78,9.29,6.78,15.65,9.06-9.59,1.67-17.01,4.5-22.24,8.5-8.3,6.34-12.44,14.64-12.44,24.88Zm76.66-176.49c5-4.63,11.52-6.95,19.57-6.95s14.27,2.32,19.39,6.95c5.12,4.64,7.68,11.22,7.68,19.76s-2.56,14.76-7.68,19.39c-5.12,4.64-11.59,6.95-19.39,6.95s-14.58-2.32-19.57-6.95c-5-4.63-7.5-11.1-7.5-19.39s2.5-15.12,7.5-19.76Zm-14.45,152.4h65.49c7.07,0,11.95,1.04,14.64,3.11,2.68,2.07,4.02,4.94,4.02,8.6s-1.95,6.89-5.85,9.69c-3.91,2.8-9.7,5-17.38,6.59-7.68,1.58-17.38,2.38-29.09,2.38-14.88,0-26.47-1.53-34.76-4.57-8.29-3.05-12.44-7.38-12.44-12.99,0-3.66,1.4-6.71,4.21-9.15,2.8-2.44,6.52-3.66,11.16-3.66Z"/><rect class="b" x="1495.96" y="190.49" width="62.56" height="182.88"/><path class="b" d="M1499.63,162.5c5.73,4.76,14.94,7.13,27.62,7.13s21.59-2.38,27.44-7.13c5.86-4.76,8.78-12.26,8.78-22.5s-2.93-18.11-8.78-22.87c-5.85-4.76-15-7.13-27.44-7.13s-21.89,2.38-27.62,7.13c-5.73,4.76-8.6,12.38-8.6,22.87s2.86,17.74,8.6,22.5Z"/><path class="b" d="M1616.28,318.55c.24,14.15,3.13,25.49,8.65,34.02,5.52,8.54,13.37,14.76,23.55,18.66,10.18,3.9,22.27,5.85,36.25,5.85,9.81,0,19.38-1.22,28.71-3.66,9.32-2.44,17.05-5.85,23.19-10.24l-6.62-38.41c-3.44,2.69-7.3,4.7-11.59,6.04-4.29,1.34-9.39,2.01-15.27,2.01-7.61,0-13.56-1.89-17.85-5.67-4.3-3.78-6.44-10.06-6.44-18.84v-73.54h54.86v-44.28h-54.86v-58.17l-62.56,17.2v40.98h-30.8v44.28h30.8v83.78Z"/><path class="b" d="M1929.1,323.51v-66.71c0-15.06-3.34-27.76-10.02-38.09-6.69-10.33-16.28-18.1-28.8-23.33-12.52-5.22-27.65-7.84-45.38-7.84-26.49,0-47.02,5.23-61.6,15.67-14.58,10.45-23.57,24.42-26.97,41.92l52.49,12.39c2.19-10.21,6.14-17.31,11.85-21.32,5.71-4.01,12.58-6.01,20.59-6.01s14.4,2.49,19.14,7.47c4.74,4.98,7.11,11.73,7.11,20.23v5.21l-63.06,13.01c-17.01,3.41-29.47,9.42-37.36,18.04-7.9,8.63-11.85,19.5-11.85,32.62,0,10.93,2.49,20.11,7.47,27.52,4.98,7.42,12.09,13.07,21.32,16.95,9.23,3.88,20.05,5.83,32.44,5.83,10.69,0,20.96-1.7,30.8-5.1,9.84-3.4,17.86-8.62,24.06-15.67,1.8-2.05,3.31-4.26,4.59-6.59,1,3.12,2.27,6.04,3.98,8.6,4.13,6.2,9.84,10.82,17.13,13.85,7.29,3.04,15.67,4.56,25.15,4.56,10.45,0,19.32-1.7,26.61-5.1l3.64-35.36c-2.68,.97-6.2,1.46-10.57,1.46-8.51,0-12.76-4.74-12.76-14.22Zm-64.16-3.51c-1.71,3.9-4.02,7.13-6.95,9.7-2.93,2.56-6.28,4.45-10.06,5.67-3.78,1.22-7.75,1.83-11.89,1.83-5.37,0-10-1.34-13.9-4.02-3.91-2.68-5.86-6.71-5.86-12.07s1.77-9.82,5.31-12.62c3.53-2.8,8.96-4.94,16.28-6.4l29.63-6.17v10.2c0,5.37-.86,10-2.56,13.9Z"/><path class="b" d="M2147.6,323.51v-66.71c0-15.06-3.34-27.76-10.02-38.09-6.69-10.33-16.28-18.1-28.8-23.33-12.52-5.22-27.65-7.84-45.38-7.84-26.49,0-47.02,5.23-61.6,15.67-14.58,10.45-23.57,24.42-26.97,41.92l52.49,12.39c2.19-10.21,6.14-17.31,11.85-21.32,5.71-4.01,12.58-6.01,20.59-6.01s14.4,2.49,19.14,7.47c4.74,4.98,7.11,11.73,7.11,20.23v5.21l-63.06,13.01c-17.01,3.41-29.47,9.42-37.36,18.04-7.9,8.63-11.85,19.5-11.85,32.62,0,10.93,2.49,20.11,7.47,27.52,4.98,7.42,12.09,13.07,21.32,16.95,9.23,3.88,20.05,5.83,32.44,5.83,10.69,0,20.96-1.7,30.8-5.1,9.84-3.4,17.86-8.62,24.06-15.67,1.8-2.05,3.31-4.26,4.59-6.59,1,3.12,2.27,6.04,3.98,8.6,4.13,6.2,9.84,10.82,17.13,13.85,7.29,3.04,15.67,4.56,25.15,4.56,10.45,0,19.32-1.7,26.61-5.1l3.64-35.36c-2.68,.97-6.2,1.46-10.57,1.46-8.51,0-12.76-4.74-12.76-14.22Zm-64.16-3.51c-1.71,3.9-4.02,7.13-6.95,9.7-2.93,2.56-6.28,4.45-10.06,5.67-3.78,1.22-7.75,1.83-11.89,1.83-5.37,0-10-1.34-13.9-4.02-3.91-2.68-5.86-6.71-5.86-12.07s1.77-9.82,5.31-12.62c3.53-2.8,8.96-4.94,16.28-6.4l29.63-6.17v10.2c0,5.37-.86,10-2.56,13.9Z"/><path class="b" d="M2250.7,377.64c6.87,0,13.86-.86,20.98-2.56,7.11-1.7,12.88-3.9,17.3-6.59l4.05-37.32c-3.44,.98-6.38,1.71-8.83,2.2-2.46,.49-5.52,.73-9.2,.73-6.38,0-10.92-1.7-13.62-5.12-2.7-3.41-4.05-9.15-4.05-17.2V113.49h-62.56v206.35c0,20.49,4.42,35.25,13.25,44.27,8.83,9.03,23.06,13.54,42.69,13.54Z"/><polygon class="b" points="1130.2 486.95 909.78 486.95 909.78 536.04 988.71 536.04 988.71 728.55 1051.27 728.55 1051.27 536.04 1130.2 536.04 1130.2 486.95"/><path class="b" d="M1265.86,553.61c-14.51-7.44-31.41-11.16-50.67-11.16s-35.49,3.72-50.12,11.16c-14.63,7.44-26.04,18.29-34.21,32.56-8.18,14.27-12.25,31.41-12.25,51.4s4.08,37.14,12.25,51.4c8.17,14.27,19.57,25.12,34.21,32.56,14.64,7.44,31.34,11.16,50.12,11.16s36.16-3.72,50.67-11.16c14.51-7.44,25.85-18.29,34.02-32.56,8.17-14.27,12.26-31.4,12.26-51.4s-4.09-37.14-12.26-51.4c-8.18-14.27-19.52-25.12-34.02-32.56Zm-20.31,113.05c-2.69,7.44-6.59,12.93-11.71,16.46-5.12,3.54-11.34,5.31-18.66,5.31s-13.17-1.77-18.29-5.31c-5.12-3.53-9.03-9.02-11.71-16.46-2.69-7.44-4.02-17.13-4.02-29.09s1.34-21.71,4.02-29.27c2.68-7.56,6.59-13.05,11.71-16.46,5.12-3.41,11.22-5.12,18.29-5.12s13.54,1.71,18.66,5.12c5.12,3.42,9.02,8.91,11.71,16.46,2.68,7.56,4.02,17.32,4.02,29.27s-1.34,21.65-4.02,29.09Z"/><path class="b" d="M1482.63,553.77c-13.42-7.44-29.76-11.16-49.02-11.16s-35.43,3.79-49.94,11.34c-14.51,7.56-25.74,18.36-33.66,32.38-7.93,14.03-11.89,31.16-11.89,51.4s3.96,37.38,11.89,51.4c7.92,14.03,19.26,24.82,34.02,32.38,14.76,7.56,32.13,11.34,52.13,11.34,13.17,0,25.49-1.83,36.95-5.49,11.46-3.66,21.4-9.08,29.82-16.28,8.42-7.19,14.33-15.91,17.75-26.16l-49.76-16.83c-2.69,6.59-6.77,11.71-12.25,15.37-5.49,3.66-12.87,5.49-22.14,5.49-8.29,0-15.37-1.7-21.22-5.12-5.86-3.41-10.37-8.78-13.54-16.1-1.74-4-2.95-8.81-3.74-14.27h124.84c.48-2.93,.85-6.52,1.1-10.79,.24-4.27,.37-8.72,.37-13.35,0-16.83-3.6-31.77-10.79-44.82-7.2-13.05-17.5-23.29-30.92-30.73Zm-68.97,37.84c5.49-3.66,12.13-5.49,19.94-5.49,10.98,0,19.08,3.9,24.33,11.71,3.74,5.57,6.12,12.91,7.19,21.95h-66.67c.69-4.1,1.57-7.88,2.77-11.16,2.8-7.68,6.95-13.35,12.44-17.01Z"/><path class="b" d="M1928.14,678.76v-66.71c0-15.06-3.34-27.76-10.02-38.09-6.69-10.33-16.28-18.1-28.8-23.33-12.52-5.22-27.65-7.84-45.38-7.84-26.49,0-47.02,5.23-61.6,15.67-14.58,10.45-23.57,24.42-26.97,41.92l52.49,12.39c2.19-10.21,6.13-17.31,11.85-21.32,5.71-4.01,12.57-6.01,20.59-6.01s14.4,2.49,19.14,7.47c4.74,4.98,7.11,11.73,7.11,20.23v5.21l-63.06,13.01c-17.01,3.41-29.47,9.42-37.36,18.04-7.9,8.63-11.84,19.5-11.84,32.62,0,10.93,2.49,20.11,7.47,27.52,4.98,7.42,12.09,13.07,21.32,16.95,9.23,3.88,20.05,5.83,32.44,5.83,10.69,0,20.96-1.7,30.8-5.1,9.84-3.4,17.86-8.62,24.06-15.67,1.8-2.05,3.31-4.26,4.59-6.59,1,3.12,2.27,6.04,3.98,8.6,4.13,6.2,9.84,10.82,17.13,13.85,7.29,3.04,15.67,4.56,25.15,4.56,10.45,0,19.32-1.7,26.61-5.1l3.64-35.36c-2.68,.97-6.2,1.46-10.57,1.46-8.51,0-12.76-4.74-12.76-14.22Zm-65.13-3.51c-1.71,3.9-4.02,7.13-6.95,9.7-2.93,2.56-6.28,4.45-10.06,5.67-3.79,1.22-7.75,1.83-11.89,1.83-5.37,0-10-1.34-13.9-4.02-3.9-2.68-5.85-6.71-5.85-12.07s1.77-9.82,5.3-12.62c3.53-2.8,8.96-4.94,16.28-6.4l29.63-6.17v10.2c0,5.37-.86,10-2.56,13.9Z"/><path class="b" d="M2129.03,549.32c-9.37-4.88-20.38-7.32-33.03-7.32-11.68,0-22.21,2.26-31.57,6.77-9.37,4.52-17.16,11.16-23.36,19.93-2.89,4.08-5.32,8.68-7.39,13.71l-1.92-36.75h-55.49v182.88h61.6v-96.95c0-10.24,1.46-18.41,4.38-24.51,2.92-6.09,6.93-10.55,12.04-13.35,5.11-2.8,10.58-4.21,16.41-4.21,7.53,0,13.73,2.44,18.6,7.32,4.86,4.88,7.29,13.66,7.29,26.34v105.37h62.56v-121.8c0-14.38-2.68-26.33-8.03-35.85-5.36-9.51-12.72-16.7-22.09-21.58Z"/><polygon class="b" points="2404.51 546.63 2334.95 546.63 2265.03 623.89 2265.03 468.66 2202.46 468.66 2202.46 729.51 2265.03 729.51 2265.03 687.34 2294.64 654.42 2339.37 729.51 2408.56 729.51 2336.74 618.47 2404.51 546.63"/><path class="b" d="M2555.7,553.77c-13.42-7.44-29.76-11.16-49.02-11.16s-35.43,3.79-49.94,11.34c-14.51,7.56-25.74,18.36-33.66,32.38-7.93,14.03-11.89,31.16-11.89,51.4s3.96,37.38,11.89,51.4c7.92,14.03,19.26,24.82,34.02,32.38,14.76,7.56,32.13,11.34,52.13,11.34,13.17,0,25.49-1.83,36.95-5.49,11.46-3.66,21.4-9.08,29.82-16.28,8.42-7.19,14.33-15.91,17.75-26.16l-49.76-16.83c-2.69,6.59-6.77,11.71-12.25,15.37-5.49,3.66-12.87,5.49-22.14,5.49-8.29,0-15.37-1.7-21.22-5.12-5.86-3.41-10.37-8.78-13.54-16.1-1.74-4-2.95-8.81-3.74-14.27h124.84c.48-2.93,.85-6.52,1.1-10.79,.24-4.27,.37-8.72,.37-13.35,0-16.83-3.6-31.77-10.79-44.82-7.2-13.05-17.5-23.29-30.92-30.73Zm-68.97,37.84c5.49-3.66,12.13-5.49,19.94-5.49,10.98,0,19.08,3.9,24.33,11.71,3.74,5.57,6.12,12.91,7.19,21.95h-66.67c.69-4.1,1.57-7.88,2.77-11.16,2.8-7.68,6.95-13.35,12.44-17.01Z"/><path class="b" d="M2711.02,689.28c-6.38,0-10.92-1.7-13.62-5.12-2.7-3.41-4.05-9.15-4.05-17.2v-198.3h-62.56v206.35c0,20.49,4.42,35.25,13.25,44.27,8.83,9.03,23.06,13.54,42.69,13.54,6.87,0,13.86-.86,20.98-2.56,7.11-1.7,12.88-3.9,17.3-6.59l4.05-37.32c-3.44,.98-6.38,1.71-8.83,2.2-2.46,.49-5.52,.73-9.2,.73Z"/><rect class="b" x="2752.07" y="545.66" width="62.56" height="182.88"/><path class="b" d="M2755.27,517.75c5.73,4.76,14.94,7.13,27.62,7.13s21.59-2.38,27.44-7.13c5.86-4.76,8.78-12.26,8.78-22.5s-2.93-18.11-8.78-22.87c-5.85-4.76-15-7.13-27.44-7.13s-21.89,2.38-27.62,7.13c-5.73,4.76-8.6,12.38-8.6,22.87s2.86,17.74,8.6,22.5Z"/><path class="b" d="M2916.8,472.38c-5.85-4.76-15-7.13-27.44-7.13s-21.89,2.38-27.62,7.13c-5.73,4.76-8.6,12.38-8.6,22.87s2.86,17.74,8.6,22.5c5.73,4.76,14.94,7.13,27.62,7.13s21.59-2.38,27.44-7.13c5.86-4.76,8.78-12.26,8.78-22.5s-2.93-18.11-8.78-22.87Z"/><path class="b" d="M2857.95,733.35c0,10.73-2.27,18.23-6.81,22.5-4.54,4.27-10.49,6.4-17.85,6.4-5.15,0-9.69-.68-13.62-2.01-3.92-1.34-7.24-2.99-9.94-4.94l-8.83,40.24c6.13,3.66,13.25,6.52,21.34,8.6,8.1,2.07,17.05,3.11,26.87,3.11,14.96,0,27.72-2.26,38.27-6.77,10.55-4.52,18.71-11.77,24.48-21.77,5.76-10,8.65-23.3,8.65-39.88v-193.17h-62.56v187.69Z"/><polygon class="b" points="3101.69 728.55 3170 728.55 3098.62 617.51 3165.98 545.66 3096.85 545.66 3027.35 622.51 3027.35 468.66 2964.79 468.66 2964.79 728.55 3027.35 728.55 3027.35 686.47 3056.96 653.61 3101.69 728.55"/><path class="b" d="M1722.1,702.44c-11.34-8.9-27.62-13.35-48.85-13.35h-58.29c-6.85,0-11.98-1.04-15.4-3.12-3.43-2.07-5.13-5.19-5.13-9.35,0-3.91,1.95-7.21,5.87-9.9,1.65-1.14,3.85-2.07,6.51-2.81,10.07,2.08,21.41,3.18,34.2,3.18,18.58,0,34.47-2.38,47.67-7.15,13.2-4.77,23.29-11.79,30.26-21.09,6.97-9.29,10.45-20.54,10.45-33.74s-3.48-24.75-10.45-33.92c-1.41-1.86-2.99-3.61-4.66-5.3h.01l24.29-41.39h-49.61l-4.6,24.61c-12.32-3.93-26.68-6.01-43.32-6.01-18.79,0-34.76,2.44-47.93,7.32-13.17,4.88-23.23,11.89-30.19,21.04-6.95,9.15-10.43,20.43-10.43,33.84,0,19.76,7.5,35.01,22.5,45.74,2.17,1.55,4.53,2.96,7,4.29-5.75,1.99-10.84,4.69-15.23,8.15-9.27,7.32-13.9,16.83-13.9,28.54s3.66,20.98,10.98,27.81c4.05,3.78,9.29,6.78,15.65,9.06-9.59,1.67-17.01,4.5-22.24,8.5-8.3,6.34-12.44,14.64-12.44,24.88,0,14.14,7.32,25.36,21.95,33.66,14.63,8.29,38.54,12.44,71.71,12.44,20.49,0,38.24-2.5,53.24-7.5,15-5,26.65-12.5,34.94-22.5,8.29-10,12.44-22.56,12.44-37.69,0-16.59-5.67-29.33-17.01-38.24Zm-100.62-117.42c5-4.63,11.52-6.95,19.57-6.95s14.27,2.32,19.39,6.95c5.12,4.64,7.68,11.22,7.68,19.76s-2.56,14.76-7.68,19.39c-5.12,4.64-11.59,6.95-19.39,6.95s-14.58-2.32-19.57-6.95c-5-4.63-7.5-11.1-7.5-19.39s2.5-15.12,7.5-19.76Zm63.84,173.59c-3.91,2.8-9.7,5-17.38,6.59-7.68,1.58-17.38,2.38-29.09,2.38-14.88,0-26.47-1.53-34.76-4.57-8.29-3.05-12.44-7.38-12.44-12.99,0-3.66,1.4-6.71,4.21-9.15,2.8-2.44,6.52-3.66,11.16-3.66h65.49c7.07,0,11.95,1.04,14.64,3.11,2.68,2.07,4.02,4.94,4.02,8.6s-1.95,6.89-5.85,9.7Z"/></g></svg>